<?xml version="1.0" encoding="UTF-8"?>
<!-- Generator: visioncortex VTracer 0.6.4 -->
<svg version="1.1" xmlns="http://www.w3.org/2000/svg" width="16" height="16">
<path d="M0,0 L12,0 L12,9 L10,9 L10,10 L8,10 L8,11 L6,11 L6,8 L0,8 Z " fill="#FFFFFF" transform="translate(2,2)"/>
<path d="M0,0 L11,0 L11,1 L0,1 Z " fill="#FFFFFF" opacity="0.5019608" transform="translate(3,1)"/>
<path d="M0,0 L1,0 L1,1 L0,1 Z " fill="#B0B0B0" transform="translate(7,6)"/>
<path d="M0,0 L1,0 L1,1 L0,1 Z " fill="#ADADAD" transform="translate(8,6)"/>
<path d="M0,0 L1,0 L1,6 L0,6 Z " fill="#FFFFFF" opacity="0.5411765" transform="translate(14,4)"/>
<path d="M0,0 L1,0 L1,6 L0,6 Z " fill="#FFFFFF" opacity="0.5411765" transform="translate(1,4)"/>
<path d="M0,0 L1,0 L1,1 L0,1 Z " fill="#FFFFFF" opacity="0.6666667" transform="translate(8,13)"/>
<path d="M0,0 L4,0 L4,1 L0,1 Z " fill="#FFFFFF" opacity="0.9019608" transform="translate(4,10)"/>
<path d="M0,0 L4,0 L4,1 L3,1 L3,2 L2,2 L2,1 L0,1 Z " fill="#A0A0A0" transform="translate(6,4)"/>
<path d="M0,0 L2,0 L2,1 L3,1 L3,2 L1,2 L1,1 L0,1 Z " fill="#BABABA" transform="translate(7,7)"/>
<path d="M0,0 L1,0 L1,1 L0,1 Z " fill="#BFBFBF" opacity="0.13333334" transform="translate(6,14)"/>
<path d="M0,0 L1,0 L1,3 L0,3 Z " fill="#A3A3A3" transform="translate(9,5)"/>
<path d="M0,0 L1,0 L1,1 L0,1 Z " fill="#FFFFFF" opacity="0.007843138" transform="translate(12,12)"/>
<path d="M0,0 L1,0 L1,1 L0,1 Z " fill="#FFFFFF" opacity="0.627451" transform="translate(7,12)"/>
<path d="M0,0 L1,0 L1,1 L0,1 Z " fill="#FFFFFF" opacity="0.011764706" transform="translate(14,11)"/>
<path d="M0,0 L1,0 L1,1 L0,1 Z " fill="#FFFFFF" opacity="0.9019608" transform="translate(3,10)"/>
<path d="M0,0 L2,0 L2,1 L0,1 Z " fill="#FFFFFF" transform="translate(6,9)"/>
<path d="M0,0 L2,0 L2,1 L0,1 Z " fill="#B1B1B1" transform="translate(6,8)"/>
<path d="M0,0 L1,0 L1,2 L0,2 Z " fill="#FDFDFD" transform="translate(5,7)"/>
<path d="M0,0 L2,0 L2,1 L0,1 Z " fill="#EFEFEF" transform="translate(6,5)"/>
<path d="M0,0 L1,0 L1,1 L0,1 Z " fill="#FFFFFF" opacity="0.5411765" transform="translate(14,3)"/>
<path d="M0,0 L1,0 L1,1 L0,1 Z " fill="#FFFFFF" opacity="0.5411765" transform="translate(1,3)"/>
<path d="M0,0 L1,0 L1,1 L0,1 Z " fill="#FFFFFF" opacity="0.5019608" transform="translate(2,1)"/>
<path d="M0,0 L1,0 L1,1 L0,1 Z " fill="#FFFFFF" opacity="0.1254902" transform="translate(7,14)"/>
<path d="M0,0 L1,0 L1,1 L0,1 Z " fill="#FFFFFF" opacity="0.21176471" transform="translate(9,13)"/>
<path d="M0,0 L1,0 L1,1 L0,1 Z " fill="#FFFFFF" opacity="0.9490196" transform="translate(7,13)"/>
<path d="M0,0 L1,0 L1,1 L0,1 Z " fill="#FFFFFF" opacity="0.05882353" transform="translate(6,13)"/>
<path d="M0,0 L1,0 L1,1 L0,1 Z " fill="#FFFFFF" opacity="0.3137255" transform="translate(11,12)"/>
<path d="M0,0 L1,0 L1,1 L0,1 Z " fill="#FFFFFF" opacity="0.7647059" transform="translate(10,12)"/>
<path d="M0,0 L1,0 L1,1 L0,1 Z " fill="#FFFFFF" opacity="0.40784314" transform="translate(13,11)"/>
<path d="M0,0 L1,0 L1,1 L0,1 Z " fill="#FFFFFF" opacity="0.85490197" transform="translate(12,11)"/>
<path d="M0,0 L1,0 L1,1 L0,1 Z " fill="#FFFFFF" opacity="0.22745098" transform="translate(7,11)"/>
<path d="M0,0 L1,0 L1,1 L0,1 Z " fill="#FFFFFF" opacity="0.39215687" transform="translate(14,10)"/>
<path d="M0,0 L1,0 L1,1 L0,1 Z " fill="#FFFFFF" opacity="0.8980392" transform="translate(2,10)"/>
<path d="M0,0 L1,0 L1,1 L0,1 Z " fill="#FFFFFF" opacity="0.34509805" transform="translate(1,10)"/>
<path d="M0,0 L1,0 L1,1 L0,1 Z " fill="#DADADA" transform="translate(8,8)"/>
<path d="M0,0 L1,0 L1,1 L0,1 Z " fill="#BFBFBF" transform="translate(6,8)"/>
<path d="M0,0 L1,0 L1,1 L0,1 Z " fill="#A5A5A5" transform="translate(9,7)"/>
<path d="M0,0 L1,0 L1,1 L0,1 Z " fill="#DEDEDE" transform="translate(7,7)"/>
<path d="M0,0 L1,0 L1,1 L0,1 Z " fill="#939393" transform="translate(6,7)"/>
<path d="M0,0 L1,0 L1,1 L0,1 Z " fill="#E8E8E8" transform="translate(5,7)"/>
<path d="M0,0 L1,0 L1,1 L0,1 Z " fill="#AAAAAA" transform="translate(6,6)"/>
<path d="M0,0 L1,0 L1,1 L0,1 Z " fill="#FAFAFA" transform="translate(5,6)"/>
<path d="M0,0 L1,0 L1,1 L0,1 Z " fill="#C9C9C9" transform="translate(8,5)"/>
<path d="M0,0 L1,0 L1,1 L0,1 Z " fill="#EAEAEA" transform="translate(6,5)"/>
<path d="M0,0 L1,0 L1,1 L0,1 Z " fill="#D2D2D2" transform="translate(9,4)"/>
<path d="M0,0 L1,0 L1,1 L0,1 Z " fill="#9F9F9F" transform="translate(8,4)"/>
<path d="M0,0 L1,0 L1,1 L0,1 Z " fill="#BFBFBF" transform="translate(6,4)"/>
<path d="M0,0 L1,0 L1,1 L0,1 Z " fill="#FFFFFF" opacity="0.53333336" transform="translate(14,2)"/>
<path d="M0,0 L1,0 L1,1 L0,1 Z " fill="#FFFFFF" opacity="0.53333336" transform="translate(1,2)"/>
<path d="M0,0 L1,0 L1,1 L0,1 Z " fill="#BFBFBF" opacity="0.15294118" transform="translate(14,1)"/>
<path d="M0,0 L1,0 L1,1 L0,1 Z " fill="#BFBFBF" opacity="0.15294118" transform="translate(1,1)"/>
</svg>
