<?xml version="1.0" encoding="UTF-8"?>
<!-- Generator: visioncortex VTracer 0.6.4 -->
<svg version="1.1" xmlns="http://www.w3.org/2000/svg" width="16" height="16">
<path d="M0,0 L4,0 L4,1 L0,1 Z M-1,1 L0,1 L0,5 L4,5 L4,6 L-1,6 Z M4,1 L5,1 L5,5 L4,5 Z M-2,6 L-1,6 L-1,7 L-2,7 Z M-3,7 L-2,7 L-2,8 L-3,8 Z M-7,9 L-5,9 L-5,10 L-3,10 L-3,14 L-5,14 L-5,15 L-7,15 Z M-5,11 L-5,13 L-4,13 L-4,11 Z M-1,10 L3,10 L3,14 L-1,14 Z M0,11 L0,13 L2,13 L2,11 Z M7,9 L8,9 L8,11 L6,11 L6,13 L8,13 L8,15 L7,15 L7,14 L5,14 L5,10 L7,10 Z " fill="#E0E0E0" transform="translate(7,1)"/>
<path d="M0,0 L4,0 L4,1 L0,1 Z M-1,1 L0,1 L0,5 L-1,5 Z M4,1 L5,1 L5,5 L4,5 Z M3,5 L4,5 L4,6 L3,6 Z " fill="#E0E0E0" transform="translate(7,1)"/>
<path d="M0,0 L4,0 L4,1 L0,1 Z M-1,1 L0,1 L0,2 L-1,2 Z M-2,2 L-1,2 L-1,3 L-2,3 Z M-6,4 L-4,4 L-4,5 L-2,5 L-2,6 L0,6 L0,8 L-2,8 L-2,9 L-4,9 L-4,10 L-6,10 Z M-4,6 L-4,8 L-3,8 L-3,6 Z " fill="#DFDFDF" opacity="0.89411765" transform="translate(6,6)"/>
<path d="M0,0 L2,0 L2,1 L4,1 L4,5 L2,5 L2,6 L0,6 Z M2,2 L2,4 L3,4 L3,2 Z " fill="#E0E0E0" transform="translate(0,10)"/>
<path d="M0,0 L1,0 L1,2 L0,2 Z M5,-1 L6,-1 L6,1 L4,1 L4,3 L6,3 L6,5 L5,5 L5,4 L3,4 L3,0 L5,0 Z " fill="#E0E0E0" transform="translate(9,11)"/>
<path d="M0,0 L4,0 L4,1 L0,1 Z M-1,1 L0,1 L0,2 L-1,2 Z M4,1 L5,1 L5,4 L4,4 Z " fill="#E0E0E0" transform="translate(7,1)"/>
<path d="M0,0 L1,0 L1,1 L0,1 Z M1,1 L2,1 L2,2 L1,2 Z M0,2 L1,2 L1,3 L0,3 Z " fill="#DFDFDF" opacity="0.827451" transform="translate(5,6)"/>
<path d="M0,0 L1,0 L1,1 L0,1 Z " fill="#E0E0E0" transform="translate(8,11)"/>
<path d="M0,0 L4,0 L4,1 L0,1 Z M-1,1 L0,1 L0,2 L-1,2 Z M-2,2 L-1,2 L-1,3 L-2,3 Z " fill="#E0E0E0" transform="translate(6,6)"/>
<path d="M0,0 L1,0 L1,3 L0,3 Z " fill="#E0E0E0" transform="translate(6,3)"/>
<path d="M0,0 L1,0 L1,1 L3,1 L3,3 L1,3 L1,2 L0,2 Z " fill="#DFDFDF" opacity="0.89411765" transform="translate(9,11)"/>
<path d="M0,0 L2,0 L2,1 L1,1 L1,3 L2,3 L2,4 L0,4 Z " fill="#E0E0E0" transform="translate(6,11)"/>
<path d="M0,0 L1,0 L1,1 L0,1 Z " fill="#E0E0E0" opacity="0.8980392" transform="translate(12,4)"/>
<path d="M0,0 L1,0 L1,1 L0,1 Z M1,1 L2,1 L2,4 L1,4 Z " fill="#E0E0E0" transform="translate(10,1)"/>
<path d="M0,0 L2,0 L2,1 L0,1 Z " fill="#E0E0E0" opacity="0.8980392" transform="translate(8,0)"/>
<path d="M0,0 L1,0 L1,1 L0,1 Z " fill="#DEDEDE" opacity="0.023529412" transform="translate(4,10)"/>
<path d="M0,0 L1,0 L1,1 L0,1 Z " fill="#E0E0E0" opacity="0.8980392" transform="translate(13,15)"/>
<path d="M0,0 L1,0 L1,1 L0,1 Z " fill="#E0E0E0" opacity="0.8980392" transform="translate(7,15)"/>
<path d="M0,0 L3,0 L3,2 L2,2 L2,1 L0,1 Z " fill="#E0E0E0" transform="translate(12,14)"/>
<path d="M0,0 L1,0 L1,1 L0,1 Z " fill="#DCDCDC" opacity="0.2901961" transform="translate(8,13)"/>
<path d="M0,0 L2,0 L2,1 L0,1 Z " fill="#DFDFDF" opacity="0.5294118" transform="translate(10,11)"/>
<path d="M0,0 L1,0 L1,1 L0,1 Z " fill="#E0E0E0" opacity="0.92941177" transform="translate(5,4)"/>
<path d="M0,0 L1,0 L1,1 L0,1 Z M1,1 L2,1 L2,2 L1,2 Z " fill="#D9D9D9" opacity="0.10980392" transform="translate(9,2)"/>
<path d="M0,0 L1,0 L1,1 L0,1 Z M-1,1 L0,1 L0,2 L-1,2 Z " fill="#A7A7A7" opacity="0.08627451" transform="translate(6,8)"/>
<path d="M0,0 L2,0 L2,1 L0,1 Z " fill="#DFDFDF" opacity="0.023529412" transform="translate(10,15)"/>
<path d="M0,0 L2,0 L2,1 L0,1 Z " fill="#DFDFDF" opacity="0.023529412" transform="translate(4,15)"/>
<path d="M0,0 L2,0 L2,1 L0,1 Z " fill="#DFDFDF" opacity="0.5294118" transform="translate(10,14)"/>
<path d="M0,0 L2,0 L2,1 L0,1 Z " fill="#DFDFDF" opacity="0.5294118" transform="translate(4,14)"/>
<path d="M0,0 L1,0 L1,1 L0,1 Z " fill="#DCDCDC" opacity="0.28627452" transform="translate(13,13)"/>
<path d="M0,0 L1,0 L1,2 L0,2 Z " fill="#DDDDDD" opacity="0.2901961" transform="translate(2,12)"/>
<path d="M0,0 L2,0 L2,1 L0,1 Z " fill="#DDDDDD" opacity="0.2901961" transform="translate(7,12)"/>
<path d="M0,0 L1,0 L1,2 L0,2 Z " fill="#E0E0E0" transform="translate(9,11)"/>
<path d="M0,0 L2,0 L2,1 L0,1 Z " fill="#DFDFDF" opacity="0.5294118" transform="translate(4,11)"/>
<path d="M0,0 L1,0 L1,2 L0,2 Z " fill="#E0E0E0" transform="translate(3,11)"/>
<path d="M0,0 L1,0 L1,1 L0,1 Z " fill="#E0E0E0" opacity="0.8980392" transform="translate(13,10)"/>
<path d="M0,0 L2,0 L2,1 L0,1 Z " fill="#DFDFDF" opacity="0.023529412" transform="translate(10,10)"/>
<path d="M0,0 L1,0 L1,1 L0,1 Z " fill="#E0E0E0" opacity="0.8980392" transform="translate(7,10)"/>
<path d="M0,0 L1,0 L1,1 L0,1 Z " fill="#E0E0E0" opacity="0.8980392" transform="translate(9,7)"/>
<path d="M0,0 L1,0 L1,1 L0,1 Z M-1,1 L0,1 L0,2 L-1,2 Z " fill="#A6A6A6" opacity="0.08235294" transform="translate(4,6)"/>
<path d="M0,0 L2,0 L2,1 L0,1 Z " fill="#D8D8D8" opacity="0.105882354" transform="translate(8,5)"/>
<path d="M0,0 L1,0 L1,2 L0,2 Z " fill="#E0E0E0" transform="translate(11,3)"/>
<path d="M0,0 L1,0 L1,1 L0,1 Z " fill="#DADADA" opacity="0.101960786" transform="translate(7,4)"/>
<path d="M0,0 L1,0 L1,1 L0,1 Z " fill="#DDDDDD" opacity="0.6431373" transform="translate(12,2)"/>
<path d="M0,0 L1,0 L1,1 L0,1 Z " fill="#DDDDDD" opacity="0.6431373" transform="translate(5,2)"/>
<path d="M0,0 L2,0 L2,1 L0,1 Z " fill="#E0E0E0" transform="translate(8,1)"/>
<path d="M0,0 L1,0 L1,1 L0,1 Z " fill="#DEDEDE" opacity="0.6509804" transform="translate(7,0)"/>
<path d="M0,0 L1,0 L1,1 L0,1 Z " fill="#DFDFDF" opacity="0.53333336" transform="translate(12,15)"/>
<path d="M0,0 L1,0 L1,1 L0,1 Z " fill="#DFDFDF" opacity="0.53333336" transform="translate(9,15)"/>
<path d="M0,0 L1,0 L1,1 L0,1 Z " fill="#E0E0E0" opacity="0.8980392" transform="translate(8,15)"/>
<path d="M0,0 L1,0 L1,1 L0,1 Z " fill="#DFDFDF" opacity="0.53333336" transform="translate(6,15)"/>
<path d="M0,0 L1,0 L1,1 L0,1 Z " fill="#DFDFDF" opacity="0.53333336" transform="translate(3,15)"/>
<path d="M0,0 L1,0 L1,1 L0,1 Z " fill="#E0E0E0" opacity="0.8980392" transform="translate(2,15)"/>
<path d="M0,0 L1,0 L1,1 L0,1 Z " fill="#E0E0E0" transform="translate(3,14)"/>
<path d="M0,0 L1,0 L1,1 L0,1 Z " fill="#DCDCDC" opacity="0.28627452" transform="translate(7,13)"/>
<path d="M0,0 L1,0 L1,1 L0,1 Z " fill="#DDDDDD" opacity="0.2901961" transform="translate(13,12)"/>
<path d="M0,0 L1,0 L1,1 L0,1 Z " fill="#DFDFDF" opacity="0.53333336" transform="translate(12,10)"/>
<path d="M0,0 L1,0 L1,1 L0,1 Z " fill="#DFDFDF" opacity="0.53333336" transform="translate(9,10)"/>
<path d="M0,0 L1,0 L1,1 L0,1 Z " fill="#E0E0E0" opacity="0.8980392" transform="translate(8,10)"/>
<path d="M0,0 L1,0 L1,1 L0,1 Z " fill="#DFDFDF" opacity="0.53333336" transform="translate(6,10)"/>
<path d="M0,0 L1,0 L1,1 L0,1 Z " fill="#A7A7A7" opacity="0.023529412" transform="translate(5,10)"/>
<path d="M0,0 L1,0 L1,1 L0,1 Z " fill="#DFDFDF" opacity="0.53333336" transform="translate(3,10)"/>
<path d="M0,0 L1,0 L1,1 L0,1 Z " fill="#E0E0E0" opacity="0.8980392" transform="translate(2,10)"/>
<path d="M0,0 L1,0 L1,1 L0,1 Z " fill="#DEDEDE" opacity="0.41568628" transform="translate(4,9)"/>
<path d="M0,0 L1,0 L1,1 L0,1 Z " fill="#DFDFDF" opacity="0.40784314" transform="translate(3,8)"/>
<path d="M0,0 L1,0 L1,1 L0,1 Z " fill="#A6A6A6" opacity="0.105882354" transform="translate(11,7)"/>
<path d="M0,0 L1,0 L1,1 L0,1 Z " fill="#DEDEDE" opacity="0.6509804" transform="translate(10,7)"/>
<path d="M0,0 L1,0 L1,1 L0,1 Z " fill="#E0E0E0" opacity="0.9372549" transform="translate(8,7)"/>
<path d="M0,0 L1,0 L1,1 L0,1 Z " fill="#DFDFDF" opacity="0.6666667" transform="translate(7,7)"/>
<path d="M0,0 L1,0 L1,1 L0,1 Z " fill="#DFDFDF" opacity="0.8235294" transform="translate(4,7)"/>
<path d="M0,0 L1,0 L1,1 L0,1 Z " fill="#6E6E6E" opacity="0.105882354" transform="translate(12,6)"/>
<path d="M0,0 L1,0 L1,1 L0,1 Z " fill="#E0E0E0" opacity="0.9254902" transform="translate(11,6)"/>
<path d="M0,0 L1,0 L1,1 L0,1 Z " fill="#DEDEDE" opacity="0.6509804" transform="translate(12,5)"/>
<path d="M0,0 L1,0 L1,1 L0,1 Z " fill="#DDDDDD" opacity="0.70980394" transform="translate(10,5)"/>
<path d="M0,0 L1,0 L1,1 L0,1 Z " fill="#DDDDDD" opacity="0.70980394" transform="translate(7,5)"/>
<path d="M0,0 L1,0 L1,1 L0,1 Z " fill="#DFDFDF" opacity="0.6627451" transform="translate(5,5)"/>
<path d="M0,0 L1,0 L1,1 L0,1 Z " fill="#D9D9D9" opacity="0.10980392" transform="translate(10,4)"/>
<path d="M0,0 L1,0 L1,1 L0,1 Z " fill="#DFDFDF" opacity="0.89411765" transform="translate(12,3)"/>
<path d="M0,0 L1,0 L1,1 L0,1 Z " fill="#D9D9D9" opacity="0.10980392" transform="translate(7,3)"/>
<path d="M0,0 L1,0 L1,1 L0,1 Z " fill="#DFDFDF" opacity="0.89411765" transform="translate(5,3)"/>
<path d="M0,0 L1,0 L1,1 L0,1 Z " fill="#DDDDDD" opacity="0.70980394" transform="translate(10,2)"/>
<path d="M0,0 L1,0 L1,1 L0,1 Z " fill="#D8D8D8" opacity="0.105882354" transform="translate(8,2)"/>
<path d="M0,0 L1,0 L1,1 L0,1 Z " fill="#DDDDDD" opacity="0.70980394" transform="translate(7,2)"/>
<path d="M0,0 L1,0 L1,1 L0,1 Z " fill="#6F6F6F" opacity="0.105882354" transform="translate(12,1)"/>
<path d="M0,0 L1,0 L1,1 L0,1 Z " fill="#E0E0E0" opacity="0.9254902" transform="translate(11,1)"/>
<path d="M0,0 L1,0 L1,1 L0,1 Z " fill="#E0E0E0" opacity="0.9254902" transform="translate(6,1)"/>
<path d="M0,0 L1,0 L1,1 L0,1 Z " fill="#6F6F6F" opacity="0.105882354" transform="translate(5,1)"/>
<path d="M0,0 L1,0 L1,1 L0,1 Z " fill="#A6A6A6" opacity="0.105882354" transform="translate(11,0)"/>
<path d="M0,0 L1,0 L1,1 L0,1 Z " fill="#DEDEDE" opacity="0.6509804" transform="translate(10,0)"/>
<path d="M0,0 L1,0 L1,1 L0,1 Z " fill="#A6A6A6" opacity="0.105882354" transform="translate(6,0)"/>
</svg>
