<?xml version="1.0" encoding="UTF-8"?>
<!-- Generator: visioncortex VTracer 0.6.4 -->
<svg version="1.1" xmlns="http://www.w3.org/2000/svg" width="64" height="64">
<path d="M0,0 L28,0 L28,1 L29,1 L29,12 L28,12 L28,13 L27,13 L27,12 L26,12 L26,11 L25,11 L25,10 L23,10 L23,11 L22,11 L22,12 L21,12 L21,13 L20,13 L20,14 L19,14 L19,15 L18,15 L18,16 L19,16 L19,17 L20,17 L20,18 L21,18 L21,20 L20,20 L20,21 L19,21 L19,22 L18,22 L18,23 L19,23 L19,25 L18,25 L18,27 L17,27 L17,28 L16,28 L16,22 L0,22 L0,21 L-1,21 L-1,1 L0,1 Z M23,14 L25,14 L25,15 L26,15 L26,16 L27,16 L27,17 L28,17 L28,16 L29,16 L29,15 L30,15 L30,14 L32,14 L32,15 L33,15 L33,16 L32,16 L32,17 L31,17 L31,18 L30,18 L30,20 L31,20 L31,21 L32,21 L32,22 L33,22 L33,23 L32,23 L32,24 L31,24 L31,23 L30,23 L30,22 L29,22 L29,21 L27,21 L27,22 L26,22 L26,23 L25,23 L25,24 L23,24 L23,22 L24,22 L24,21 L25,21 L25,20 L26,20 L26,19 L25,19 L25,18 L24,18 L24,17 L23,17 L23,16 L22,16 L22,15 L23,15 Z " fill="#FFFFFF" transform="translate(18,20)"/>
<path d="M0,0 L2,0 L2,1 L3,1 L3,2 L4,2 L4,3 L5,3 L5,2 L6,2 L6,1 L7,1 L7,0 L9,0 L9,1 L10,1 L10,2 L9,2 L9,3 L8,3 L8,4 L7,4 L7,6 L8,6 L8,7 L9,7 L9,8 L10,8 L10,9 L9,9 L9,10 L8,10 L8,9 L7,9 L7,8 L6,8 L6,7 L4,7 L4,8 L3,8 L3,9 L2,9 L2,10 L0,10 L0,8 L1,8 L1,7 L2,7 L2,6 L3,6 L3,5 L2,5 L2,4 L1,4 L1,3 L0,3 L0,2 L-1,2 L-1,1 L0,1 Z " fill="#FFFFFF" transform="translate(41,34)"/>
<path d="M0,0 L7,0 L7,1 L0,1 Z " fill="#FFFFFF" opacity="0.3019608" transform="translate(25,42)"/>
<path d="M0,0 L1,0 L1,10 L0,10 Z " fill="#FFFFFF" opacity="0.29411766" transform="translate(47,22)"/>
<path d="M0,0 L1,0 L1,1 L0,1 Z M-1,1 L0,1 L0,2 L-1,2 Z " fill="#FFFFFF" transform="translate(41,34)"/>
<path d="M0,0 L1,0 L1,6 L0,6 Z " fill="#FFFFFF" opacity="0.9529412" transform="translate(33,43)"/>
<path d="M0,0 L5,0 L5,1 L0,1 Z " fill="#FFFFFF" opacity="0.2" transform="translate(19,42)"/>
<path d="M0,0 L1,0 L1,1 L0,1 Z " fill="#FFFFFF" opacity="0.8509804" transform="translate(39,38)"/>
<path d="M0,0 L1,0 L1,1 L0,1 Z " fill="#FFFFFF" opacity="0.9529412" transform="translate(49,33)"/>
<path d="M0,0 L1,0 L1,1 L0,1 Z " fill="#FFFFFF" opacity="0.8627451" transform="translate(41,33)"/>
<path d="M0,0 L1,0 L1,1 L0,1 Z " fill="#FFFFFF" opacity="0.9490196" transform="translate(40,42)"/>
<path d="M0,0 L1,0 L1,1 L0,1 Z " fill="#FFFFFF" opacity="0.7764706" transform="translate(50,41)"/>
<path d="M0,0 L1,0 L1,1 L0,1 Z " fill="#FFFFFF" opacity="0.9607843" transform="translate(41,41)"/>
<path d="M0,0 L1,0 L1,1 L0,1 Z " fill="#FFFFFF" opacity="0.8" transform="translate(37,36)"/>
<path d="M0,0 L1,0 L1,1 L0,1 Z " fill="#FFFFFF" opacity="0.8627451" transform="translate(44,32)"/>
<path d="M0,0 L1,0 L1,1 L0,1 Z " fill="#FFFFFF" opacity="0.90588236" transform="translate(42,30)"/>
<path d="M0,0 L1,0 L1,1 L0,1 Z M-1,1 L0,1 L0,2 L-1,2 Z " fill="#FFFFFF" transform="translate(18,20)"/>
<path d="M0,0 L1,0 L1,1 L0,1 Z " fill="#FFFFFF" opacity="0.023529412" transform="translate(34,49)"/>
<path d="M0,0 L1,0 L1,1 L0,1 Z " fill="#FFFFFF" opacity="0.07450981" transform="translate(42,45)"/>
<path d="M0,0 L1,0 L1,1 L0,1 Z " fill="#FFFFFF" opacity="0.8235294" transform="translate(41,44)"/>
<path d="M0,0 L1,0 L1,1 L0,1 Z " fill="#FFFFFF" opacity="0.45490196" transform="translate(37,43)"/>
<path d="M0,0 L1,0 L1,1 L0,1 Z " fill="#FFFFFF" opacity="0.29411766" transform="translate(46,42)"/>
<path d="M0,0 L1,0 L1,1 L0,1 Z " fill="#FFFFFF" opacity="0.2" transform="translate(18,42)"/>
<path d="M0,0 L1,0 L1,1 L0,1 Z " fill="#FFFFFF" opacity="0.03529412" transform="translate(49,39)"/>
<path d="M0,0 L1,0 L1,1 L0,1 Z " fill="#FFFFFF" opacity="0.7137255" transform="translate(48,39)"/>
<path d="M0,0 L1,0 L1,1 L0,1 Z " fill="#FFFFFF" opacity="0.31764707" transform="translate(42,39)"/>
<path d="M0,0 L1,0 L1,1 L0,1 Z " fill="#FFFFFF" opacity="0.44313726" transform="translate(51,35)"/>
<path d="M0,0 L1,0 L1,1 L0,1 Z " fill="#FFFFFF" opacity="0.4627451" transform="translate(46,35)"/>
<path d="M0,0 L1,0 L1,1 L0,1 Z " fill="#BFBFBF" opacity="0.078431375" transform="translate(39,34)"/>
<path d="M0,0 L1,0 L1,1 L0,1 Z " fill="#BFBFBF" opacity="0.003921569" transform="translate(48,32)"/>
<path d="M0,0 L1,0 L1,1 L0,1 Z " fill="#FFFFFF" opacity="0.29411766" transform="translate(47,21)"/>
<path d="M0,0 L1,0 L1,1 L0,1 Z " fill="#FFFFFF" opacity="0.3019608" transform="translate(33,49)"/>
<path d="M0,0 L1,0 L1,1 L0,1 Z " fill="#FFFFFF" opacity="0.003921569" transform="translate(35,48)"/>
<path d="M0,0 L1,0 L1,1 L0,1 Z " fill="#FFFFFF" opacity="0.6392157" transform="translate(34,48)"/>
<path d="M0,0 L1,0 L1,1 L0,1 Z " fill="#FFFFFF" opacity="0.5294118" transform="translate(35,47)"/>
<path d="M0,0 L1,0 L1,1 L0,1 Z " fill="#FFFFFF" opacity="0.41568628" transform="translate(36,46)"/>
<path d="M0,0 L1,0 L1,1 L0,1 Z " fill="#FFFFFF" opacity="0.047058824" transform="translate(49,45)"/>
<path d="M0,0 L1,0 L1,1 L0,1 Z " fill="#FFFFFF" opacity="0.07058824" transform="translate(41,45)"/>
<path d="M0,0 L1,0 L1,1 L0,1 Z " fill="#FFFFFF" opacity="0.31764707" transform="translate(37,45)"/>
<path d="M0,0 L1,0 L1,1 L0,1 Z " fill="#FFFFFF" opacity="0.99215686" transform="translate(36,45)"/>
<path d="M0,0 L1,0 L1,1 L0,1 Z " fill="#FFFFFF" opacity="0.27450982" transform="translate(50,44)"/>
<path d="M0,0 L1,0 L1,1 L0,1 Z " fill="#FFFFFF" opacity="0.91764706" transform="translate(49,44)"/>
<path d="M0,0 L1,0 L1,1 L0,1 Z " fill="#FFFFFF" opacity="0.23529412" transform="translate(48,44)"/>
<path d="M0,0 L1,0 L1,1 L0,1 Z " fill="#FFFFFF" opacity="0.05490196" transform="translate(43,44)"/>
<path d="M0,0 L1,0 L1,1 L0,1 Z " fill="#FFFFFF" opacity="0.79607844" transform="translate(42,44)"/>
<path d="M0,0 L1,0 L1,1 L0,1 Z " fill="#BFBFBF" opacity="0.09019608" transform="translate(40,44)"/>
<path d="M0,0 L1,0 L1,1 L0,1 Z " fill="#FFFFFF" opacity="0.11764706" transform="translate(38,44)"/>
<path d="M0,0 L1,0 L1,1 L0,1 Z " fill="#FFFFFF" opacity="0.9647059" transform="translate(37,44)"/>
<path d="M0,0 L1,0 L1,1 L0,1 Z " fill="#FFFFFF" opacity="0.23921569" transform="translate(51,43)"/>
<path d="M0,0 L1,0 L1,1 L0,1 Z " fill="#FFFFFF" opacity="0.9607843" transform="translate(50,43)"/>
<path d="M0,0 L1,0 L1,1 L0,1 Z " fill="#FFFFFF" opacity="0.95686275" transform="translate(48,43)"/>
<path d="M0,0 L1,0 L1,1 L0,1 Z " fill="#FFFFFF" opacity="0.2627451" transform="translate(47,43)"/>
<path d="M0,0 L1,0 L1,1 L0,1 Z " fill="#FFFFFF" opacity="0.043137256" transform="translate(44,43)"/>
<path d="M0,0 L1,0 L1,1 L0,1 Z " fill="#FFFFFF" opacity="0.7647059" transform="translate(43,43)"/>
<path d="M0,0 L1,0 L1,1 L0,1 Z " fill="#FFFFFF" opacity="0.84705883" transform="translate(40,43)"/>
<path d="M0,0 L1,0 L1,1 L0,1 Z " fill="#BFBFBF" opacity="0.10980392" transform="translate(39,43)"/>
<path d="M0,0 L1,0 L1,1 L0,1 Z " fill="#FFFFFF" opacity="0.7490196" transform="translate(51,42)"/>
<path d="M0,0 L1,0 L1,1 L0,1 Z " fill="#FFFFFF" opacity="0.96862745" transform="translate(47,42)"/>
<path d="M0,0 L1,0 L1,1 L0,1 Z " fill="#FFFFFF" opacity="0.02745098" transform="translate(45,42)"/>
<path d="M0,0 L1,0 L1,1 L0,1 Z " fill="#FFFFFF" opacity="0.7294118" transform="translate(44,42)"/>
<path d="M0,0 L1,0 L1,1 L0,1 Z " fill="#FFFFFF" opacity="0.20392157" transform="translate(39,42)"/>
<path d="M0,0 L1,0 L1,1 L0,1 Z " fill="#FFFFFF" opacity="0.37254903" transform="translate(37,42)"/>
<path d="M0,0 L1,0 L1,1 L0,1 Z " fill="#FFFFFF" opacity="0.99607843" transform="translate(36,42)"/>
<path d="M0,0 L1,0 L1,1 L0,1 Z " fill="#FFFFFF" opacity="0.9882353" transform="translate(33,42)"/>
<path d="M0,0 L1,0 L1,1 L0,1 Z " fill="#FFFFFF" opacity="0.34509805" transform="translate(32,42)"/>
<path d="M0,0 L1,0 L1,1 L0,1 Z " fill="#FFFFFF" opacity="0.24705882" transform="translate(24,42)"/>
<path d="M0,0 L1,0 L1,1 L0,1 Z " fill="#FFFFFF" opacity="0.15294118" transform="translate(17,42)"/>
<path d="M0,0 L1,0 L1,1 L0,1 Z " fill="#FFFFFF" opacity="0.0627451" transform="translate(51,41)"/>
<path d="M0,0 L1,0 L1,1 L0,1 Z " fill="#FFFFFF" opacity="0.98039216" transform="translate(46,41)"/>
<path d="M0,0 L1,0 L1,1 L0,1 Z " fill="#FFFFFF" opacity="0.78039217" transform="translate(45,41)"/>
<path d="M0,0 L1,0 L1,1 L0,1 Z " fill="#FFFFFF" opacity="0.24313726" transform="translate(40,41)"/>
<path d="M0,0 L1,0 L1,1 L0,1 Z " fill="#FFFFFF" opacity="0.32941177" transform="translate(38,41)"/>
<path d="M0,0 L1,0 L1,1 L0,1 Z " fill="#FFFFFF" opacity="0.9882353" transform="translate(37,41)"/>
<path d="M0,0 L1,0 L1,1 L0,1 Z " fill="#FFFFFF" opacity="0.9843137" transform="translate(17,41)"/>
<path d="M0,0 L1,0 L1,1 L0,1 Z " fill="#FFFFFF" opacity="0.047058824" transform="translate(50,40)"/>
<path d="M0,0 L1,0 L1,1 L0,1 Z " fill="#FFFFFF" opacity="0.74509805" transform="translate(49,40)"/>
<path d="M0,0 L1,0 L1,1 L0,1 Z " fill="#FFFFFF" opacity="0.9764706" transform="translate(42,40)"/>
<path d="M0,0 L1,0 L1,1 L0,1 Z " fill="#FFFFFF" opacity="0.2784314" transform="translate(41,40)"/>
<path d="M0,0 L1,0 L1,1 L0,1 Z " fill="#FFFFFF" opacity="0.29411766" transform="translate(39,40)"/>
<path d="M0,0 L1,0 L1,1 L0,1 Z " fill="#FFFFFF" opacity="0.98039216" transform="translate(38,40)"/>
<path d="M0,0 L1,0 L1,1 L0,1 Z " fill="#FFFFFF" opacity="0.9843137" transform="translate(43,39)"/>
<path d="M0,0 L1,0 L1,1 L0,1 Z " fill="#FFFFFF" opacity="0.24705882" transform="translate(40,39)"/>
<path d="M0,0 L1,0 L1,1 L0,1 Z " fill="#FFFFFF" opacity="0.96862745" transform="translate(39,39)"/>
<path d="M0,0 L1,0 L1,1 L0,1 Z " fill="#FFFFFF" opacity="0.003921569" transform="translate(49,38)"/>
<path d="M0,0 L1,0 L1,1 L0,1 Z " fill="#FFFFFF" opacity="0.5921569" transform="translate(48,38)"/>
<path d="M0,0 L1,0 L1,1 L0,1 Z " fill="#FFFFFF" opacity="0.4509804" transform="translate(42,38)"/>
<path d="M0,0 L1,0 L1,1 L0,1 Z " fill="#BFBFBF" opacity="0.11372549" transform="translate(40,38)"/>
<path d="M0,0 L1,0 L1,1 L0,1 Z " fill="#FFFFFF" opacity="0.54509807" transform="translate(49,37)"/>
<path d="M0,0 L1,0 L1,1 L0,1 Z " fill="#FFFFFF" opacity="0.49411765" transform="translate(41,37)"/>
<path d="M0,0 L1,0 L1,1 L0,1 Z " fill="#BFBFBF" opacity="0.09411765" transform="translate(39,37)"/>
<path d="M0,0 L1,0 L1,1 L0,1 Z " fill="#FFFFFF" opacity="0.827451" transform="translate(38,37)"/>
<path d="M0,0 L1,0 L1,1 L0,1 Z " fill="#FFFFFF" opacity="0.49803922" transform="translate(50,36)"/>
<path d="M0,0 L1,0 L1,1 L0,1 Z " fill="#FFFFFF" opacity="0.7647059" transform="translate(45,36)"/>
<path d="M0,0 L1,0 L1,1 L0,1 Z " fill="#FFFFFF" opacity="0.5372549" transform="translate(40,36)"/>
<path d="M0,0 L1,0 L1,1 L0,1 Z " fill="#FFFFFF" opacity="0.07450981" transform="translate(38,36)"/>
<path d="M0,0 L1,0 L1,1 L0,1 Z " fill="#FFFFFF" opacity="0.003921569" transform="translate(45,35)"/>
<path d="M0,0 L1,0 L1,1 L0,1 Z " fill="#FFFFFF" opacity="0.56078434" transform="translate(44,35)"/>
<path d="M0,0 L1,0 L1,1 L0,1 Z " fill="#FFFFFF" opacity="0.45490196" transform="translate(39,35)"/>
<path d="M0,0 L1,0 L1,1 L0,1 Z " fill="#FFFFFF" opacity="0.07058824" transform="translate(37,35)"/>
<path d="M0,0 L1,0 L1,1 L0,1 Z " fill="#FFFFFF" opacity="0.9372549" transform="translate(36,35)"/>
<path d="M0,0 L1,0 L1,1 L0,1 Z " fill="#FFFFFF" opacity="0.2901961" transform="translate(51,34)"/>
<path d="M0,0 L1,0 L1,1 L0,1 Z " fill="#FFFFFF" opacity="0.96862745" transform="translate(50,34)"/>
<path d="M0,0 L1,0 L1,1 L0,1 Z " fill="#FFFFFF" opacity="0.5137255" transform="translate(47,34)"/>
<path d="M0,0 L1,0 L1,1 L0,1 Z " fill="#FFFFFF" opacity="0.52156866" transform="translate(43,34)"/>
<path d="M0,0 L1,0 L1,1 L0,1 Z " fill="#FFFFFF" opacity="0.8352941" transform="translate(40,34)"/>
<path d="M0,0 L1,0 L1,1 L0,1 Z " fill="#FFFFFF" opacity="0.003921569" transform="translate(38,34)"/>
<path d="M0,0 L1,0 L1,1 L0,1 Z " fill="#FFFFFF" opacity="0.6156863" transform="translate(37,34)"/>
<path d="M0,0 L1,0 L1,1 L0,1 Z " fill="#FFFFFF" opacity="0.25490198" transform="translate(50,33)"/>
<path d="M0,0 L1,0 L1,1 L0,1 Z " fill="#FFFFFF" opacity="0.56078434" transform="translate(48,33)"/>
<path d="M0,0 L1,0 L1,1 L0,1 Z " fill="#BFBFBF" opacity="0.101960786" transform="translate(46,33)"/>
<path d="M0,0 L1,0 L1,1 L0,1 Z " fill="#FFFFFF" opacity="0.7019608" transform="translate(45,33)"/>
<path d="M0,0 L1,0 L1,1 L0,1 Z " fill="#BFBFBF" opacity="0.101960786" transform="translate(44,33)"/>
<path d="M0,0 L1,0 L1,1 L0,1 Z " fill="#FFFFFF" opacity="0.4745098" transform="translate(42,33)"/>
<path d="M0,0 L1,0 L1,1 L0,1 Z " fill="#BFBFBF" opacity="0.101960786" transform="translate(40,33)"/>
<path d="M0,0 L1,0 L1,1 L0,1 Z " fill="#FFFFFF" opacity="0.5764706" transform="translate(38,33)"/>
<path d="M0,0 L1,0 L1,1 L0,1 Z " fill="#FFFFFF" opacity="0.14509805" transform="translate(49,32)"/>
<path d="M0,0 L1,0 L1,1 L0,1 Z " fill="#BFBFBF" opacity="0.078431375" transform="translate(47,32)"/>
<path d="M0,0 L1,0 L1,1 L0,1 Z " fill="#FFFFFF" opacity="0.8392157" transform="translate(46,32)"/>
<path d="M0,0 L1,0 L1,1 L0,1 Z " fill="#BFBFBF" opacity="0.12156863" transform="translate(43,32)"/>
<path d="M0,0 L1,0 L1,1 L0,1 Z " fill="#FFFFFF" opacity="0.047058824" transform="translate(41,32)"/>
<path d="M0,0 L1,0 L1,1 L0,1 Z " fill="#FFFFFF" opacity="0.5254902" transform="translate(39,32)"/>
<path d="M0,0 L1,0 L1,1 L0,1 Z " fill="#FFFFFF" opacity="0.8862745" transform="translate(43,31)"/>
<path d="M0,0 L1,0 L1,1 L0,1 Z " fill="#BFBFBF" opacity="0.14509805" transform="translate(42,31)"/>
<path d="M0,0 L1,0 L1,1 L0,1 Z " fill="#FFFFFF" opacity="0.47843137" transform="translate(40,31)"/>
<path d="M0,0 L1,0 L1,1 L0,1 Z " fill="#FFFFFF" opacity="0.5411765" transform="translate(41,30)"/>
<path d="M0,0 L1,0 L1,1 L0,1 Z " fill="#FFFFFF" opacity="0.23529412" transform="translate(47,20)"/>
<path d="M0,0 L1,0 L1,1 L0,1 Z " fill="#FFFFFF" opacity="0.99215686" transform="translate(46,20)"/>
<path d="M0,0 L1,0 L1,1 L0,1 Z " fill="#FFFFFF" opacity="0.9254902" transform="translate(17,20)"/>
</svg>
