<?xml version="1.0" encoding="UTF-8"?>
<!-- Generator: visioncortex VTracer 0.6.4 -->
<svg version="1.1" xmlns="http://www.w3.org/2000/svg" width="22" height="22">
<path d="M0,0 L16,0 L16,1 L17,1 L17,10 L16,10 L16,7 L12,7 L12,10 L9,10 L9,14 L12,14 L12,15 L10,15 L10,16 L8,16 L8,13 L0,13 L0,12 L-1,12 L-1,1 L0,1 Z M7,16 L8,16 L8,17 L7,17 Z " fill="#FFFFFF" transform="translate(3,2)"/>
<path d="M0,0 L4,0 L4,1 L5,1 L5,6 L-1,6 L-1,3 L0,3 L0,2 L3,2 L3,1 L0,1 Z " fill="#A6A6A6" transform="translate(9,6)"/>
<path d="M0,0 L2,0 L2,3 L5,3 L5,5 L2,5 L2,8 L0,8 L0,5 L-3,5 L-3,3 L0,3 Z " fill="#A5EFAC" transform="translate(16,10)"/>
<path d="M0,0 L4,0 L4,1 L2,1 L2,2 L0,2 Z M-1,2 L0,2 L0,3 L-1,3 Z " fill="#FFFFFF" transform="translate(11,16)"/>
<path d="M0,0 L1,0 L1,5 L-2,5 L-2,4 L-3,4 L-3,2 L-1,2 L-1,4 L0,4 Z " fill="#BBBBBB" transform="translate(13,7)"/>
<path d="M0,0 L4,0 L4,5 L3,5 L3,1 L0,1 Z " fill="#939393" transform="translate(9,6)"/>
<path d="M0,0 L1,0 L1,1 L4,1 L4,2 L1,2 L1,3 L0,3 Z " fill="#F3F3F3" transform="translate(8,6)"/>
<path d="M0,0 L1,0 L1,1 L0,1 Z " fill="#FFFFFF" opacity="0.2509804" transform="translate(10,19)"/>
<path d="M0,0 L1,0 L1,4 L0,4 Z " fill="#C7C7C7" transform="translate(13,7)"/>
<path d="M0,0 L4,0 L4,1 L0,1 Z " fill="#DADADA" transform="translate(9,5)"/>
<path d="M0,0 L1,0 L1,3 L0,3 Z " fill="#939393" transform="translate(8,9)"/>
<path d="M0,0 L2,0 L2,1 L1,1 L1,2 L0,2 Z " fill="#E9E9E9" transform="translate(10,9)"/>
<path d="M0,0 L1,0 L1,1 L0,1 Z M-1,1 L0,1 L0,2 L-1,2 Z " fill="#FFFFFF" transform="translate(3,2)"/>
<path d="M0,0 L1,0 L1,1 L0,1 Z " fill="#FFFFFF" opacity="0.38431373" transform="translate(9,18)"/>
<path d="M0,0 L1,0 L1,1 L0,1 Z " fill="#FFFFFF" opacity="0.5882353" transform="translate(10,16)"/>
<path d="M0,0 L2,0 L2,1 L0,1 Z " fill="#FEFEFE" transform="translate(9,12)"/>
<path d="M0,0 L1,0 L1,2 L0,2 Z " fill="#FFFFFF" transform="translate(19,10)"/>
<path d="M0,0 L1,0 L1,2 L0,2 Z " fill="#FFFFFF" transform="translate(14,10)"/>
<path d="M0,0 L1,0 L1,2 L0,2 Z " fill="#CBCBCB" transform="translate(11,10)"/>
<path d="M0,0 L2,0 L2,1 L0,1 Z " fill="#999999" transform="translate(9,11)"/>
<path d="M0,0 L1,0 L1,2 L0,2 Z " fill="#C2C2C2" transform="translate(13,7)"/>
<path d="M0,0 L2,0 L2,1 L0,1 Z " fill="#A5A5A5" transform="translate(10,8)"/>
<path d="M0,0 L2,0 L2,1 L0,1 Z " fill="#E9E9E9" transform="translate(10,7)"/>
<path d="M0,0 L2,0 L2,1 L0,1 Z " fill="#969696" transform="translate(9,6)"/>
<path d="M0,0 L1,0 L1,1 L0,1 Z " fill="#FFFFFF" opacity="0.5294118" transform="translate(9,19)"/>
<path d="M0,0 L1,0 L1,1 L0,1 Z " fill="#FFFFFF" opacity="0.2509804" transform="translate(12,18)"/>
<path d="M0,0 L1,0 L1,1 L0,1 Z " fill="#FFFFFF" opacity="0.7490196" transform="translate(11,18)"/>
<path d="M0,0 L1,0 L1,1 L0,1 Z " fill="#FFFFFF" opacity="0.24705882" transform="translate(14,17)"/>
<path d="M0,0 L1,0 L1,1 L0,1 Z " fill="#FFFFFF" opacity="0.7490196" transform="translate(13,17)"/>
<path d="M0,0 L1,0 L1,1 L0,1 Z " fill="#FFFFFF" opacity="0.9411765" transform="translate(10,17)"/>
<path d="M0,0 L1,0 L1,1 L0,1 Z " fill="#FFFFFF" opacity="0.039215688" transform="translate(9,17)"/>
<path d="M0,0 L1,0 L1,1 L0,1 Z " fill="#FFFFFF" opacity="0.19607843" transform="translate(10,15)"/>
<path d="M0,0 L1,0 L1,1 L0,1 Z " fill="#FFFFFF" opacity="0.7019608" transform="translate(2,14)"/>
<path d="M0,0 L1,0 L1,1 L0,1 Z " fill="#FBFBFB" transform="translate(9,12)"/>
<path d="M0,0 L1,0 L1,1 L0,1 Z " fill="#ACACAC" transform="translate(12,11)"/>
<path d="M0,0 L1,0 L1,1 L0,1 Z " fill="#949494" transform="translate(9,11)"/>
<path d="M0,0 L1,0 L1,1 L0,1 Z " fill="#C5C5C5" transform="translate(8,11)"/>
<path d="M0,0 L1,0 L1,1 L0,1 Z " fill="#B8B8B8" transform="translate(11,10)"/>
<path d="M0,0 L1,0 L1,1 L0,1 Z " fill="#DBDBDB" transform="translate(10,10)"/>
<path d="M0,0 L1,0 L1,1 L0,1 Z " fill="#A2A2A2" transform="translate(9,10)"/>
<path d="M0,0 L1,0 L1,1 L0,1 Z " fill="#F9F9F9" transform="translate(7,10)"/>
<path d="M0,0 L1,0 L1,1 L0,1 Z " fill="#C6C6C6" transform="translate(13,9)"/>
<path d="M0,0 L1,0 L1,1 L0,1 Z " fill="#ECECEC" transform="translate(10,9)"/>
<path d="M0,0 L1,0 L1,1 L0,1 Z " fill="#9C9C9C" transform="translate(8,9)"/>
<path d="M0,0 L1,0 L1,1 L0,1 Z " fill="#FEFEFE" transform="translate(7,9)"/>
<path d="M0,0 L1,0 L1,1 L0,1 Z " fill="#A2A2A2" transform="translate(10,8)"/>
<path d="M0,0 L1,0 L1,1 L0,1 Z " fill="#B2B2B2" transform="translate(9,8)"/>
<path d="M0,0 L1,0 L1,1 L0,1 Z " fill="#E7E7E7" transform="translate(8,8)"/>
<path d="M0,0 L1,0 L1,1 L0,1 Z " fill="#C4C4C4" transform="translate(13,7)"/>
<path d="M0,0 L1,0 L1,1 L0,1 Z " fill="#FFFFFF" transform="translate(10,7)"/>
<path d="M0,0 L1,0 L1,1 L0,1 Z " fill="#EEEEEE" transform="translate(9,7)"/>
<path d="M0,0 L1,0 L1,1 L0,1 Z " fill="#E4E4E4" transform="translate(13,6)"/>
<path d="M0,0 L1,0 L1,1 L0,1 Z " fill="#949494" transform="translate(12,6)"/>
<path d="M0,0 L1,0 L1,1 L0,1 Z " fill="#939393" transform="translate(9,6)"/>
<path d="M0,0 L1,0 L1,1 L0,1 Z " fill="#C8C8C8" transform="translate(8,6)"/>
<path d="M0,0 L1,0 L1,1 L0,1 Z " fill="#EDEDED" transform="translate(12,5)"/>
<path d="M0,0 L1,0 L1,1 L0,1 Z " fill="#D6D6D6" transform="translate(11,5)"/>
<path d="M0,0 L1,0 L1,1 L0,1 Z " fill="#E8E8E8" transform="translate(9,5)"/>
<path d="M0,0 L1,0 L1,1 L0,1 Z " fill="#FEFEFE" transform="translate(8,5)"/>
<path d="M0,0 L1,0 L1,1 L0,1 Z " fill="#FFFFFF" opacity="0.7019608" transform="translate(19,2)"/>
<path d="M0,0 L1,0 L1,1 L0,1 Z " fill="#FFFFFF" opacity="0.7019608" transform="translate(2,2)"/>
</svg>
